<svg width="163" height="12" viewBox="0 0 163 12" fill="none" xmlns="http://www.w3.org/2000/svg">
<path d="M5.74023 4.12994C5.74023 3.60586 5.60124 3.23216 5.32324 3.00885C5.0498 2.78554 4.66471 2.67389 4.16797 2.67389H2.20605V5.64069H4.16797C4.66471 5.64069 5.0498 5.51992 5.32324 5.27838C5.60124 5.03684 5.74023 4.65403 5.74023 4.12994ZM7.8252 4.11627C7.8252 5.30573 7.52441 6.14655 6.92285 6.63873C6.32129 7.13092 5.46224 7.37701 4.3457 7.37701H2.20605V11.0001H0.114258V0.923889H4.50293C5.51465 0.923889 6.32129 1.18365 6.92285 1.70319C7.52441 2.22272 7.8252 3.02708 7.8252 4.11627ZM9.4043 0.923889H11.5439V7.11725C11.5439 7.80996 11.626 8.31582 11.79 8.63483C12.0452 9.19993 12.6012 9.48248 13.458 9.48248C14.3102 9.48248 14.8639 9.19993 15.1191 8.63483C15.2832 8.31582 15.3652 7.80996 15.3652 7.11725V0.923889H17.5049V7.11725C17.5049 8.18821 17.3385 9.0222 17.0059 9.6192C16.3861 10.713 15.2035 11.2598 13.458 11.2598C11.7126 11.2598 10.5277 10.713 9.90332 9.6192C9.57064 9.0222 9.4043 8.18821 9.4043 7.11725V0.923889ZM21.627 2.67389V5.38092H24.0127C24.4867 5.38092 24.8421 5.32623 25.0791 5.21686C25.4984 5.02545 25.708 4.6472 25.708 4.08209C25.708 3.47142 25.5052 3.06126 25.0996 2.85162C24.8717 2.73313 24.5299 2.67389 24.0742 2.67389H21.627ZM24.5117 0.923889C25.2181 0.937561 25.7604 1.02415 26.1387 1.18365C26.5215 1.34316 26.8451 1.57786 27.1094 1.88776C27.3281 2.14296 27.5013 2.42552 27.6289 2.73541C27.7565 3.04531 27.8203 3.3985 27.8203 3.79498C27.8203 4.2735 27.6995 4.74518 27.458 5.21002C27.2165 5.67031 26.8177 5.99615 26.2617 6.18756C26.7266 6.37441 27.0547 6.64101 27.2461 6.98737C27.4421 7.32916 27.54 7.85325 27.54 8.55963V9.23639C27.54 9.69668 27.5583 10.0089 27.5947 10.1729C27.6494 10.4327 27.777 10.6241 27.9775 10.7471V11.0001H25.6602C25.5964 10.7768 25.5508 10.5967 25.5234 10.46C25.4688 10.1775 25.4391 9.88808 25.4346 9.59186L25.4209 8.65533C25.4118 8.01276 25.2933 7.58437 25.0654 7.37018C24.8421 7.15599 24.4206 7.04889 23.8008 7.04889H21.627V11.0001H19.5693V0.923889H24.5117ZM31.5664 11.0001H29.4746V0.923889H31.5664V11.0001ZM40.8564 0.923889V2.70807H37.8418V11.0001H35.7227V2.70807H32.6943V0.923889H40.8564ZM47.8428 0.923889H50.2285L46.8584 7.21295V11.0001H44.7529V7.21295L41.2666 0.923889H43.748L45.8398 5.31256L47.8428 0.923889ZM55.082 0.923889H57.2217V7.11725C57.2217 7.80996 57.3037 8.31582 57.4678 8.63483C57.723 9.19993 58.279 9.48248 59.1357 9.48248C59.988 9.48248 60.5417 9.19993 60.7969 8.63483C60.9609 8.31582 61.043 7.80996 61.043 7.11725V0.923889H63.1826V7.11725C63.1826 8.18821 63.0163 9.0222 62.6836 9.6192C62.0638 10.713 60.8812 11.2598 59.1357 11.2598C57.3903 11.2598 56.2054 10.713 55.5811 9.6192C55.2484 9.0222 55.082 8.18821 55.082 7.11725V0.923889ZM67.127 11.0001H65.0352V0.923889H67.127V11.0001ZM75.0361 2.67389V9.25006H76.9775C77.971 9.25006 78.6637 8.76015 79.0557 7.78033C79.2699 7.24257 79.377 6.60227 79.377 5.85944C79.377 4.83405 79.2152 4.04791 78.8916 3.50104C78.5726 2.94961 77.9346 2.67389 76.9775 2.67389H75.0361ZM77.333 0.923889C77.9574 0.933004 78.4769 1.00592 78.8916 1.14264C79.598 1.37506 80.1699 1.80117 80.6074 2.42096C80.9583 2.92226 81.1976 3.46458 81.3252 4.04791C81.4528 4.63125 81.5166 5.18724 81.5166 5.71588C81.5166 7.05573 81.2477 8.19049 80.71 9.12018C79.9808 10.3734 78.8551 11.0001 77.333 11.0001H72.9922V0.923889H77.333ZM85.8643 7.19244H88.4209L87.1631 3.2276L85.8643 7.19244ZM85.9941 0.923889H88.373L91.9414 11.0001H89.6582L89.0088 8.92877H85.2969L84.5996 11.0001H82.3984L85.9941 0.923889ZM94.751 7.88971C94.8148 8.35 94.9401 8.69407 95.127 8.92194C95.4688 9.33665 96.0544 9.54401 96.8838 9.54401C97.3805 9.54401 97.7839 9.48932 98.0938 9.37994C98.6816 9.17031 98.9756 8.78066 98.9756 8.211C98.9756 7.87832 98.8298 7.62083 98.5381 7.43854C98.2464 7.2608 97.7884 7.10358 97.1641 6.96686L96.0977 6.7276C95.0495 6.49062 94.3249 6.23313 93.9238 5.95514C93.2448 5.4903 92.9053 4.76341 92.9053 3.77448C92.9053 2.87213 93.2334 2.12246 93.8896 1.52545C94.5459 0.928446 95.5098 0.629944 96.7812 0.629944C97.8431 0.629944 98.7477 0.912496 99.4951 1.4776C100.247 2.03815 100.641 2.8539 100.678 3.92487H98.6543C98.6178 3.31875 98.3535 2.88808 97.8613 2.63287C97.5332 2.46425 97.1253 2.37994 96.6377 2.37994C96.0954 2.37994 95.6624 2.48932 95.3389 2.70807C95.0153 2.92682 94.8535 3.23216 94.8535 3.62408C94.8535 3.98411 95.013 4.25299 95.332 4.43073C95.5371 4.54921 95.9746 4.68821 96.6445 4.84772L98.3809 5.26471C99.1419 5.447 99.7161 5.69082 100.104 5.99615C100.705 6.47011 101.006 7.15599 101.006 8.05377C101.006 8.97434 100.653 9.73997 99.9463 10.3506C99.2445 10.9568 98.251 11.2598 96.9658 11.2598C95.6533 11.2598 94.6211 10.9613 93.8691 10.3643C93.1172 9.76276 92.7412 8.93789 92.7412 7.88971H94.751ZM102.551 11.0001V0.923889H104.636V4.76569H108.573V0.923889H110.665V11.0001H108.573V6.50201H104.636V11.0001H102.551ZM114.726 2.67389V4.89557H117.2C117.642 4.89557 118 4.81354 118.273 4.64948C118.551 4.48086 118.69 4.18463 118.69 3.7608C118.69 3.2914 118.508 2.98151 118.144 2.83112C117.829 2.7263 117.428 2.67389 116.94 2.67389H114.726ZM114.726 6.56354V9.25006H117.2C117.642 9.25006 117.986 9.19082 118.232 9.07233C118.679 8.85358 118.902 8.43431 118.902 7.81451C118.902 7.29043 118.686 6.9304 118.253 6.73444C118.011 6.62506 117.672 6.56809 117.234 6.56354H114.726ZM117.61 0.923889C118.845 0.942118 119.72 1.29987 120.235 1.99713C120.545 2.42552 120.7 2.93821 120.7 3.53522C120.7 4.15045 120.545 4.64492 120.235 5.01862C120.062 5.22825 119.807 5.41966 119.47 5.59283C119.985 5.77968 120.372 6.07591 120.632 6.48151C120.896 6.88711 121.028 7.37929 121.028 7.95807C121.028 8.55507 120.878 9.09056 120.577 9.56451C120.386 9.87897 120.146 10.1433 119.859 10.3575C119.536 10.6036 119.153 10.7722 118.711 10.8633C118.273 10.9545 117.797 11.0001 117.282 11.0001H112.716V0.923889H117.61ZM127.256 9.49615C128.09 9.49615 128.751 9.18854 129.238 8.5733C129.73 7.95807 129.977 7.08307 129.977 5.9483C129.977 4.81809 129.73 3.94537 129.238 3.33014C128.751 2.71035 128.09 2.40045 127.256 2.40045C126.422 2.40045 125.757 2.70807 125.26 3.3233C124.763 3.93854 124.515 4.81354 124.515 5.9483C124.515 7.08307 124.763 7.95807 125.26 8.5733C125.757 9.18854 126.422 9.49615 127.256 9.49615ZM132.082 5.9483C132.082 7.75755 131.574 9.14296 130.558 10.1046C129.797 10.8884 128.696 11.2803 127.256 11.2803C125.816 11.2803 124.715 10.8884 123.954 10.1046C122.933 9.14296 122.423 7.75755 122.423 5.9483C122.423 4.1026 122.933 2.71718 123.954 1.79205C124.715 1.0082 125.816 0.616272 127.256 0.616272C128.696 0.616272 129.797 1.0082 130.558 1.79205C131.574 2.71718 132.082 4.1026 132.082 5.9483ZM136.45 7.19244H139.007L137.749 3.2276L136.45 7.19244ZM136.58 0.923889H138.959L142.527 11.0001H140.244L139.595 8.92877H135.883L135.186 11.0001H132.984L136.58 0.923889ZM145.918 2.67389V5.38092H148.304C148.778 5.38092 149.133 5.32623 149.37 5.21686C149.789 5.02545 149.999 4.6472 149.999 4.08209C149.999 3.47142 149.796 3.06126 149.391 2.85162C149.163 2.73313 148.821 2.67389 148.365 2.67389H145.918ZM148.803 0.923889C149.509 0.937561 150.051 1.02415 150.43 1.18365C150.812 1.34316 151.136 1.57786 151.4 1.88776C151.619 2.14296 151.792 2.42552 151.92 2.73541C152.048 3.04531 152.111 3.3985 152.111 3.79498C152.111 4.2735 151.991 4.74518 151.749 5.21002C151.507 5.67031 151.109 5.99615 150.553 6.18756C151.018 6.37441 151.346 6.64101 151.537 6.98737C151.733 7.32916 151.831 7.85325 151.831 8.55963V9.23639C151.831 9.69668 151.849 10.0089 151.886 10.1729C151.94 10.4327 152.068 10.6241 152.269 10.7471V11.0001H149.951C149.887 10.7768 149.842 10.5967 149.814 10.46C149.76 10.1775 149.73 9.88808 149.726 9.59186L149.712 8.65533C149.703 8.01276 149.584 7.58437 149.356 7.37018C149.133 7.15599 148.712 7.04889 148.092 7.04889H145.918V11.0001H143.86V0.923889H148.803ZM155.974 2.67389V9.25006H157.915C158.909 9.25006 159.601 8.76015 159.993 7.78033C160.207 7.24257 160.314 6.60227 160.314 5.85944C160.314 4.83405 160.153 4.04791 159.829 3.50104C159.51 2.94961 158.872 2.67389 157.915 2.67389H155.974ZM158.271 0.923889C158.895 0.933004 159.414 1.00592 159.829 1.14264C160.535 1.37506 161.107 1.80117 161.545 2.42096C161.896 2.92226 162.135 3.46458 162.263 4.04791C162.39 4.63125 162.454 5.18724 162.454 5.71588C162.454 7.05573 162.185 8.19049 161.647 9.12018C160.918 10.3734 159.793 11.0001 158.271 11.0001H153.93V0.923889H158.271Z" fill="#2D3748"/>
</svg>
