<svg width="11" height="11" viewBox="0 0 11 11" fill="none" xmlns="http://www.w3.org/2000/svg">
<path d="M5.50003 3.62482C5.12919 3.62482 4.76668 3.73478 4.45834 3.94081C4.15 4.14684 3.90967 4.43967 3.76776 4.78228C3.62584 5.1249 3.58871 5.5019 3.66106 5.86561C3.73341 6.22932 3.91198 6.56342 4.17421 6.82564C4.43643 7.08786 4.77052 7.26644 5.13424 7.33879C5.49795 7.41113 5.87495 7.374 6.21756 7.23209C6.56017 7.09017 6.85301 6.84985 7.05904 6.54151C7.26506 6.23317 7.37503 5.87066 7.37503 5.49982C7.37355 5.00299 7.17553 4.52694 6.82422 4.17563C6.47291 3.82432 5.99686 3.6263 5.50003 3.62482V3.62482ZM9.54815 5.49982C9.54718 5.67501 9.53434 5.84995 9.50972 6.02341L10.6509 6.91685C10.7006 6.95789 10.7341 7.01526 10.7454 7.07872C10.7567 7.14218 10.745 7.20759 10.7125 7.26325L9.633 9.127C9.60018 9.18217 9.54896 9.22401 9.48834 9.24514C9.42773 9.26628 9.3616 9.26536 9.30159 9.24255L7.9598 8.70349C7.68039 8.91864 7.37463 9.0972 7.04995 9.23481L6.84933 10.6593C6.8381 10.7232 6.80506 10.7811 6.75586 10.8232C6.70665 10.8654 6.64434 10.8891 6.57956 10.8904H4.4205C4.3569 10.8892 4.2956 10.8664 4.24661 10.8259C4.19761 10.7853 4.16382 10.7293 4.15073 10.6671L3.95011 9.24255C3.62453 9.10653 3.31855 8.92768 3.04027 8.71075L1.69847 9.24981C1.63849 9.27264 1.57238 9.2736 1.51177 9.25251C1.45115 9.23142 1.39992 9.18963 1.36706 9.1345L0.287533 7.27099C0.255039 7.21532 0.243398 7.14991 0.25469 7.08646C0.265982 7.023 0.299472 6.96562 0.349174 6.92458L1.49035 6.03114C1.466 5.85506 1.45317 5.67757 1.45191 5.49982C1.45288 5.32462 1.46572 5.14968 1.49035 4.97622L0.349174 4.08278C0.299472 4.04174 0.265982 3.98437 0.25469 3.92091C0.243398 3.85745 0.255039 3.79204 0.287533 3.73638L1.36706 1.87263C1.39988 1.81746 1.4511 1.77562 1.51172 1.75449C1.57234 1.73335 1.63846 1.73427 1.69847 1.75708L3.04027 2.29614C3.31967 2.08099 3.62543 1.90243 3.95011 1.76482L4.15073 0.340286C4.16196 0.276477 4.195 0.218548 4.24421 0.176398C4.29341 0.134247 4.35572 0.110492 4.4205 0.109192H6.57956C6.64316 0.11043 6.70446 0.13319 6.75345 0.173757C6.80245 0.214324 6.83625 0.270301 6.84933 0.332551L7.04995 1.75708C7.37594 1.89301 7.68232 2.07186 7.96097 2.28888L9.30159 1.74982C9.36157 1.72699 9.42768 1.72603 9.48829 1.74712C9.54891 1.76821 9.60014 1.81 9.633 1.86513L10.7125 3.72888C10.745 3.78454 10.7567 3.84995 10.7454 3.91341C10.7341 3.97687 10.7006 4.03424 10.6509 4.07528L9.50972 4.96872C9.53405 5.14473 9.54689 5.32214 9.54815 5.49982V5.49982Z" fill="#718096"/>
</svg>
